<?xml version="1.0" encoding="utf-8"?>
<!-- Generator: Adobe Illustrator 28.0.0, SVG Export Plug-In . SVG Version: 6.00 Build 0)  -->
<svg version="1.1" id="Livello_1" xmlns="http://www.w3.org/2000/svg" xmlns:xlink="http://www.w3.org/1999/xlink" x="0px" y="0px"
	 viewBox="0 0 84.35 77.43" style="enable-background:new 0 0 84.35 77.43;" xml:space="preserve">
<style type="text/css">
	.st0{fill:#F39204;}
	.st1{fill:#662D87;}
	.st2{fill:#FFFFFF;}
</style>
	<path class="st0" d="M39.18,0C17.99,0,1.94,17.51,0.58,38.75C0.02,47.47,3.2,55.59,7.66,62.21l66.87-38.6C68.85,8.74,55.3,0,39.18,0
	"/>
	<path class="st1" d="M13.51,60.37c7.01,10.15,18.51,16.77,31.51,16.77c21.35,0,38.65-17.84,38.65-39.84c0-5.27-1.82-10.3-3.62-14.9
	L13.51,60.37z"/>
	<path class="st2" d="M14.63,41.58c-0.44-3.7-0.81-6.89-0.98-8.93h-0.08c-0.06,1.55-0.58,5.79-0.94,8.93H14.63z M12.35,43.96
	l-0.64,3.37H9.55l2.57-19.36h3.01l2.68,19.36h-2.23l-0.7-3.37H12.35z"/>
	<path class="st2" d="M71.34,41.58c-0.44-3.7-0.81-6.89-0.98-8.93h-0.08c-0.06,1.55-0.58,5.79-0.94,8.93H71.34z M69.06,43.96
	l-0.64,3.37h-2.16l2.57-19.36h3.01l2.68,19.36H72.3l-0.7-3.37H69.06z"/>
	<path class="st2" d="M24.68,36.19h0.81c1.46,0,1.93-0.79,1.93-2.88v-0.74c0-1.61-0.33-2.58-1.89-2.58h-0.85V36.19z M24.68,38.35
	v8.82h-2.25V27.81h3.31c2.54,0,3.93,1.21,3.93,4.58v0.8c0,2.83-0.95,3.72-1.71,4.06c1.01,0.5,1.55,1.36,1.55,3.97
	c0,1.64-0.02,4.77,0.16,5.96h-2.18c-0.22-1.19-0.18-4.4-0.18-5.78c0-2.42-0.28-3.04-1.85-3.04H24.68z"/>
	<polygon class="st2" points="36.8,30.22 34.2,30.22 34.2,27.81 41.56,27.81 41.56,30.22 38.96,30.22 38.96,47.17 36.8,47.17 "/>
	<g>
	<path class="st2" d="M47.81,41.58v1.16c0,1.6,0.45,2.48,1.53,2.48c1.11,0,1.46-1.06,1.46-2.68c0-2.16-0.41-2.9-2.22-4.52
		c-1.83-1.64-2.78-2.66-2.78-5.52c0-2.51,0.67-4.99,3.57-4.98c2.88,0.01,3.45,2.29,3.45,4.54v0.98h-2.27v-0.91
		c0-1.46-0.23-2.37-1.23-2.37c-0.99,0-1.24,0.98-1.24,2.36c0,1.55,0.27,2.22,1.79,3.51c2.47,2.09,3.24,3.29,3.24,6.52
		c0,2.74-0.78,5.29-3.83,5.29c-2.98,0-3.75-2.18-3.75-4.73v-1.13H47.81z"/>
</g>
	<rect x="58.61" y="27.81" class="st2" width="2.52" height="19.36"/>
</svg>
